{
    "asset": {
        "version": "2.0",
        "generator": "Open Asset Import Library (assimp v6.0.0)"
    },
    "extensionsUsed": [
        "KHR_materials_specular",
        "KHR_materials_volume",
        "FB_ngon_encoding"
    ],
    "accessors": [
        {
            "bufferView": 0,
            "byteOffset": 0,
            "componentType": 5126,
            "count": 466,
            "type": "VEC3",
            "max": [
                0.013383000157773495,
                0.42733898758888245,
                0.0755470022559166
            ],
            "min": [
                -0.018950000405311584,
                -0.1358799934387207,
                -0.044631000608205795
            ]
        },
        {
            "bufferView": 1,
            "byteOffset": 0,
            "componentType": 5126,
            "count": 466,
            "type": "VEC3",
            "max": [
                1.0,
                1.0,
                1.0
            ],
            "min": [
                -1.0,
                -1.0,
                -1.0
            ]
        },
        {
            "bufferView": 2,
            "byteOffset": 0,
            "componentType": 5126,
            "count": 466,
            "type": "VEC2",
            "max": [
                0.9831519722938538,
                0.9770330190658569
            ],
            "min": [
                2.2250738585072014e-308,
                2.2250738585072014e-308
            ]
        },
        {
            "bufferView": 3,
            "byteOffset": 0,
            "componentType": 5125,
            "count": 1356,
            "type": "SCALAR",
            "max": [
                465
            ],
            "min": [
                0
            ]
        }
    ],
    "buffers": [
        {
            "byteLength": 20336,
            "uri": "AssaultRifle02.bin"
        }
    ],
    "bufferViews": [
        {
            "buffer": 0,
            "byteOffset": 0,
            "byteLength": 5592,
            "target": 34962
        },
        {
            "buffer": 0,
            "byteOffset": 5592,
            "byteLength": 5592,
            "target": 34962
        },
        {
            "buffer": 0,
            "byteOffset": 11184,
            "byteLength": 3728,
            "target": 34962
        },
        {
            "buffer": 0,
            "byteOffset": 14912,
            "byteLength": 5424,
            "target": 34963
        }
    ],
    "images": [
        {
            "uri": "AssaultRifle02.png"
        }
    ],
    "materials": [
        {
            "name": "_08_-_Default",
            "pbrMetallicRoughness": {
                "baseColorTexture": {
                    "index": 0
                },
                "metallicFactor": 0.0
            },
            "extensions": {
                "KHR_materials_specular": {
                    "specularFactor": 1.0,
                    "specularColorFactor": [
                        0.0,
                        0.0,
                        0.0
                    ]
                }
            }
        }
    ],
    "meshes": [
        {
            "name": "AssaultRifle02",
            "primitives": [
                {
                    "mode": 4,
                    "material": 0,
                    "indices": 3,
                    "attributes": {
                        "POSITION": 0,
                        "NORMAL": 1,
                        "TEXCOORD_0": 2
                    }
                }
            ]
        }
    ],
    "nodes": [
        {
            "name": "AssaultRifle02",
            "mesh": 0
        }
    ],
    "samplers": [
        {}
    ],
    "scenes": [
        {
            "nodes": [
                0
            ]
        }
    ],
    "textures": [
        {
            "source": 0,
            "sampler": 0
        }
    ],
    "scene": 0
}