{
    "asset": {
        "version": "2.0",
        "generator": "Open Asset Import Library (assimp v6.0.0)"
    },
    "extensionsUsed": [
        "KHR_materials_specular",
        "KHR_materials_volume",
        "FB_ngon_encoding"
    ],
    "accessors": [
        {
            "bufferView": 0,
            "byteOffset": 0,
            "componentType": 5126,
            "count": 643,
            "type": "VEC3",
            "max": [
                0.02155500091612339,
                0.4021120071411133,
                0.07648199796676636
            ],
            "min": [
                -0.020754000172019005,
                -0.14231300354003906,
                -0.06563500314950943
            ]
        },
        {
            "bufferView": 1,
            "byteOffset": 0,
            "componentType": 5126,
            "count": 643,
            "type": "VEC3",
            "max": [
                1.0,
                1.0,
                1.0
            ],
            "min": [
                -1.0,
                -1.0,
                -1.0
            ]
        },
        {
            "bufferView": 2,
            "byteOffset": 0,
            "componentType": 5126,
            "count": 643,
            "type": "VEC2",
            "max": [
                0.9847800135612488,
                0.9791979789733887
            ],
            "min": [
                2.2250738585072014e-308,
                2.2250738585072014e-308
            ]
        },
        {
            "bufferView": 3,
            "byteOffset": 0,
            "componentType": 5125,
            "count": 1620,
            "type": "SCALAR",
            "max": [
                642
            ],
            "min": [
                0
            ]
        }
    ],
    "buffers": [
        {
            "byteLength": 27056,
            "uri": "AssaultRifle.bin"
        }
    ],
    "bufferViews": [
        {
            "buffer": 0,
            "byteOffset": 0,
            "byteLength": 7716,
            "target": 34962
        },
        {
            "buffer": 0,
            "byteOffset": 7716,
            "byteLength": 7716,
            "target": 34962
        },
        {
            "buffer": 0,
            "byteOffset": 15432,
            "byteLength": 5144,
            "target": 34962
        },
        {
            "buffer": 0,
            "byteOffset": 20576,
            "byteLength": 6480,
            "target": 34963
        }
    ],
    "images": [
        {
            "uri": "Assault.png"
        }
    ],
    "materials": [
        {
            "name": "_02_-_Default",
            "pbrMetallicRoughness": {
                "baseColorTexture": {
                    "index": 0
                },
                "metallicFactor": 0.0
            },
            "extensions": {
                "KHR_materials_specular": {
                    "specularFactor": 1.0,
                    "specularColorFactor": [
                        0.0,
                        0.0,
                        0.0
                    ]
                }
            }
        }
    ],
    "meshes": [
        {
            "name": "AssaultRifle",
            "primitives": [
                {
                    "mode": 4,
                    "material": 0,
                    "indices": 3,
                    "attributes": {
                        "POSITION": 0,
                        "NORMAL": 1,
                        "TEXCOORD_0": 2
                    }
                }
            ]
        }
    ],
    "nodes": [
        {
            "name": "AssaultRifle",
            "mesh": 0
        }
    ],
    "samplers": [
        {}
    ],
    "scenes": [
        {
            "nodes": [
                0
            ]
        }
    ],
    "textures": [
        {
            "source": 0,
            "sampler": 0
        }
    ],
    "scene": 0
}